<svg width="32" height="32" viewBox="0 0 32 32" xmlns="http://www.w3.org/2000/svg">
  <defs>
    <linearGradient id="bg" x1="0%" y1="0%" x2="100%" y2="100%">
      <stop offset="0%" style="stop-color:#1e293b;stop-opacity:1" />
      <stop offset="100%" style="stop-color:#0f172a;stop-opacity:1" />
    </linearGradient>
  </defs>
  
  <circle cx="16" cy="16" r="16" fill="url(#bg)" />
  
  <!-- Simplified shield -->
  <path d="M16 4 C12 4 8 6 8 8 L8 18 C8 20 12 24 16 28 C20 24 24 20 24 18 L24 8 C24 6 20 4 16 4 Z" 
        fill="none" stroke="#06b6d4" stroke-width="1" />
  
  <!-- Medical cross -->
  <rect x="14" y="10" width="4" height="12" rx="1" fill="#ffffff" />
  <rect x="10" y="14" width="12" height="4" rx="1" fill="#ffffff" />
  
  <!-- Code brackets -->
  <path d="M9 12 L8 13 L9 14" stroke="#ffffff" stroke-width="1" fill="none" />
  <path d="M23 12 L24 13 L23 14" stroke="#ffffff" stroke-width="1" fill="none" />
</svg>